Coordinates
version=1
nRows=5
nColumns=107
inDegrees=yes

Units are S.I. units (second, meters, Newtons, ...)
If the header above contains a line with 'inDegrees', this indicates whether rotational values are in degrees (yes) or radians (no).

endheader
time	sternoclavicular_r2	sternoclavicular_r3	unrotscap_r3	unrotscap_r2	acromioclavicular_r2	acromioclavicular_r3	acromioclavicular_r1	unrothum_r1	unrothum_r3	unrothum_r2	elv_angle	shoulder_elv	shoulder1_r2	shoulder_rot	elbow_flexion	pro_sup	deviation	flexion	proximal_distal_r1	proximal_distal_r3	cmc_flexion	cmc_abduction	mp_flexion	ip_flexion	mcp2_flexion	mcp2_abduction	pm2_flexion	md2_flexion	mcp3_flexion	mcp3_abduction	pm3_flexion	md3_flexion	mcp4_flexion	mcp4_abduction	pm4_flexion	md4_flexion	mcp5_flexion	mcp5_abduction	pm5_flexion	md5_flexion	bicpt_tx	bicpt_ty	bicpt_tz	bicpt2_tx	bicpt2_ty	bicpt2_tz	ptpt_tx	ptpt_ty	ptpt_tz	FCUpt_tx	FCUpt_ty	FCUpt_tz	EDCpt_tx	EDCpt_ty	EDCpt_tz	APLpt_tx	APLpt_ty	APLpt_tz	FPLpt_tx	FPLpt_ty	FPLpt_tz	FPLpt2_tx	FPLpt2_ty	FPLpt2_tz	PEC1pt2_tx	PEC1pt2_ty	PEC1pt2_tz	PEC1pt3_tx	PEC1pt3_ty	PEC1pt3_tz	PEC2pt2_tx	PEC2pt2_ty	PEC2pt2_tz	PEC2pt3_tx	PEC2pt3_ty	PEC2pt3_tz	PEC3pt2_tx	PEC3pt2_ty	PEC3pt2_tz	PEC3pt3_tx	PEC3pt3_ty	PEC3pt3_tz	DELT2pt2a_tx	DELT2pt2a_ty	DELT2pt2a_tz	DELT2pt2_tx	DELT2pt2_ty	DELT2pt2_tz	LAT1pt2_tx	LAT1pt2_ty	LAT1pt2_tz	LAT1pt3_tx	LAT1pt3_ty	LAT1pt3_tz	LAT2pt2_tx	LAT2pt2_ty	LAT2pt2_tz	LAT2pt3_tx	LAT2pt3_ty	LAT2pt3_tz	LAT3pt2_tx	LAT3pt2_ty	LAT3pt2_tz	LAT3pt3_tx	LAT3pt3_ty	LAT3pt3_tz
      0.00000000	     -0.31827724	      0.13480722	     -0.13480722	      0.31827724	     -0.06444467	      0.52081913	      0.23410462	     -0.23410462	     -0.52081913	      0.06444467	     99.73380153	     75.35496625	     -1.74068321	    -25.82130578	     28.67029148	     11.39814671	     -0.04542176	     -0.99794651	     -0.06333240	     -0.49897325	     -8.07558510	      3.34941401	    -24.13999057	    -17.30086705	     27.72609298	     12.88071019	     16.52206840	     -4.85462588	     60.11971715	      5.55488958	     84.64742595	     57.44848669	     56.18289169	     -8.61653728	     82.14907252	     34.87767821	     -6.74775475	    -12.34280152	    -12.46288980	      5.01477624	      0.00084832	     -0.03088605	     -0.00482930	      0.01558523	     -0.01798843	     -0.00994983	      0.00670781	     -0.06544458	     -0.00096818	      0.00502688	     -0.18397391	      0.00012465	     -0.00136777	      0.00034299	      0.00013007	      0.00018702	      0.00007481	      0.00037405	      0.00023939	      0.00071817	      0.00040397	     -0.00087333	      0.00023812	      0.00028574	      0.00246997	      0.00866583	      0.00602840	     -0.00807973	      0.01950858	     -0.01850385	      0.00246997	      0.00866583	      0.00602840	      0.00054423	      0.01808521	     -0.00950311	      0.00391708	      0.00481896	      0.01589171	      0.00000000	      0.00759292	      0.00000000	     -0.00707500	     -0.03269571	     -0.00625964	      0.01690897	     -0.00061710	     -0.00557456	     -0.00087914	      0.01473609	     -0.00602840	      0.00242811	      0.02126686	     -0.01758284	     -0.00590281	      0.01276849	     -0.00540044	     -0.01230799	      0.02696036	     -0.03018388	     -0.02310888	      0.01427559	     -0.00724246	     -0.01532219	      0.03114675	     -0.03771938
      0.03333333	     -0.31833915	      0.13483344	     -0.13483344	      0.31833915	     -0.06445720	      0.52092044	      0.23415015	     -0.23415015	     -0.52092044	      0.06445720	     99.68913660	     75.36962326	     -1.73990366	    -25.83814648	     28.64437138	     11.39842715	     -0.04537543	     -0.99797569	     -0.06326609	     -0.49898785	     -8.07932717	      3.34952687	    -24.14171719	    -17.30129872	     27.72479158	     12.88107669	     16.52182782	     -4.85483180	     60.11880785	      5.55527552	     84.64790225	     57.44873324	     56.18322933	     -8.61664970	     82.15161719	     34.87816005	     -6.74738755	    -12.34312704	    -12.46273704	      5.01485311	      0.00084747	     -0.03088308	     -0.00482882	      0.01558523	     -0.01798138	     -0.00994980	      0.00670778	     -0.06544459	     -0.00096820	      0.00502691	     -0.18397390	      0.00012465	     -0.00136781	      0.00034300	      0.00013007	      0.00018700	      0.00007480	      0.00037401	      0.00023937	      0.00071810	      0.00040393	     -0.00087412	      0.00023825	      0.00028590	      0.00247045	      0.00866751	      0.00602957	     -0.00808131	      0.01951237	     -0.01850745	      0.00247045	      0.00866751	      0.00602957	      0.00054434	      0.01808872	     -0.00950495	      0.00391764	      0.00481989	      0.01589309	      0.00000000	      0.00759590	      0.00000000	     -0.00707638	     -0.03270207	     -0.00626212	      0.01691723	     -0.00061765	     -0.00558200	     -0.00087931	      0.01473896	     -0.00602957	      0.00242858	      0.02127100	     -0.01758626	     -0.00590396	      0.01277097	     -0.00540149	     -0.01231038	      0.02696560	     -0.03018975	     -0.02311337	      0.01427837	     -0.00724386	     -0.01532517	      0.03115280	     -0.03772672
      0.06666667	     -0.31877383	      0.13501755	     -0.13501755	      0.31877383	     -0.06454522	      0.52163173	      0.23446987	     -0.23446987	     -0.52163173	      0.06454522	     99.69674754	     75.47253709	     -1.74003650	    -25.38024642	     28.50721746	     11.91855893	     -0.02361429	     -0.99086812	     -0.03250395	     -0.49543406	     -8.84485014	      3.71068328	    -23.90896699	    -17.35827609	     28.75803669	     13.10002992	     14.63365914	     -5.31345064	     60.45235264	      6.17620971	     85.12345110	     58.54549475	     56.68857211	     -8.62944368	     83.90524512	     36.81650209	     -4.61418881	    -12.70150090	    -12.90940201	      4.98699196	      0.00084293	     -0.03086736	     -0.00482629	      0.01561993	     -0.01794413	     -0.00991495	      0.00666935	     -0.06546944	     -0.00101010	      0.00507472	     -0.18396727	      0.00010985	     -0.00143022	      0.00035961	      0.00013433	      0.00019157	      0.00007663	      0.00038314	      0.00024521	      0.00073563	      0.00041379	     -0.00104451	      0.00026458	      0.00031750	      0.00247382	      0.00867935	      0.00603781	     -0.00809234	      0.01953902	     -0.01853272	      0.00247382	      0.00867935	      0.00603781	      0.00054508	      0.01811342	     -0.00951793	      0.00392156	      0.00482648	      0.01590280	      0.00000000	      0.00761680	      0.00000000	     -0.00708604	     -0.03274672	     -0.00627947	      0.01668743	     -0.00060265	     -0.00538501	     -0.00088051	      0.01475909	     -0.00603781	      0.00243189	      0.02130005	     -0.01761027	     -0.00591202	      0.01278841	     -0.00540887	     -0.01232719	      0.02700242	     -0.03023097	     -0.02314493	      0.01429786	     -0.00725376	     -0.01534610	      0.03119534	     -0.03777823
      0.10000000	     -0.31884472	      0.13504757	     -0.13504757	      0.31884472	     -0.06455957	      0.52174773	      0.23452201	     -0.23452201	     -0.52174773	      0.06455957	     99.65883633	     75.48932103	     -1.73937482	    -25.39653977	     28.48728345	     11.91756332	     -0.02356360	     -0.99090280	     -0.03243359	     -0.49545140	     -8.84701615	      3.71049494	    -23.91010592	    -17.35848827	     28.75578555	     13.10057471	     14.63312153	     -5.31398940	     60.45090355	      6.17619854	     85.12355985	     58.54571180	     56.68797565	     -8.62951391	     83.90680776	     36.81674456	     -4.61503215	    -12.70221383	    -12.90985919	      4.98700916	      0.00084227	     -0.03086508	     -0.00482592	      0.01561986	     -0.01793871	     -0.00991501	      0.00666943	     -0.06546939	     -0.00101002	      0.00507463	     -0.18396728	      0.00010988	     -0.00143010	      0.00035958	      0.00013432	      0.00019155	      0.00007662	      0.00038310	      0.00024518	      0.00073554	      0.00041374	     -0.00104502	      0.00026466	      0.00031759	      0.00247437	      0.00868128	      0.00603915	     -0.00809414	      0.01954336	     -0.01853684	      0.00247437	      0.00868128	      0.00603915	      0.00054520	      0.01811745	     -0.00952005	      0.00392220	      0.00482755	      0.01590438	      0.00000000	      0.00762021	      0.00000000	     -0.00708761	     -0.03275401	     -0.00628230	      0.01669558	     -0.00060318	     -0.00539205	     -0.00088071	      0.01476237	     -0.00603915	      0.00243244	      0.02130478	     -0.01761419	     -0.00591334	      0.01279126	     -0.00541007	     -0.01232993	      0.02700842	     -0.03023769	     -0.02315008	      0.01430104	     -0.00725537	     -0.01534951	      0.03120228	     -0.03778663
      0.13333333	     -0.31653558	      0.13406953	     -0.13406953	      0.31653558	     -0.06409202	      0.51796913	      0.23282356	     -0.23282356	     -0.51796913	      0.06409202	    100.33557301	     74.94261234	     -1.75118611	    -28.46888806	     28.54190441	     15.45885972	     -0.01417427	     -0.96813822	     -0.01940077	     -0.48406911	     -9.13163069	      3.73323230	    -24.60994745	    -15.77931417	     29.73086771	     13.25525110	     13.49001595	     -9.89936709	     60.41980347	      6.31059657	     85.28572091	     59.77706937	     56.47366882	     -8.64828387	     85.86414264	     36.18245276	     -3.41181629	    -12.98577549	    -13.42557607	      4.99030728	      0.00084408	     -0.03087134	     -0.00482693	      0.01583969	     -0.01795355	     -0.00966764	      0.00640776	     -0.06563859	     -0.00129529	      0.00540240	     -0.18392008	      0.00001456	     -0.00185506	      0.00047487	      0.00015940	      0.00020561	      0.00008224	      0.00041121	      0.00026318	      0.00078953	      0.00044411	     -0.00111326	      0.00027462	      0.00032954	      0.00245645	      0.00861841	      0.00599541	     -0.00803552	      0.01940183	     -0.01840259	      0.00245645	      0.00861841	      0.00599541	      0.00054125	      0.01798624	     -0.00945110	      0.00390132	      0.00479259	      0.01585254	      0.00000000	      0.00750950	      0.00000000	     -0.00703628	     -0.03251679	     -0.00619037	      0.01818387	     -0.00070517	     -0.00676750	     -0.00087433	      0.01465546	     -0.00599541	      0.00241482	      0.02115049	     -0.01748662	     -0.00587051	      0.01269862	     -0.00537089	     -0.01224064	      0.02681282	     -0.03001871	     -0.02298242	      0.01419747	     -0.00720282	     -0.01523834	      0.03097631	     -0.03751297
